# xmcd
#
# Track frame offsets:
#	150
#	24517
#	46887
#	70572
#	95312
#	122285
#	137520
#	167082
#	183460
#	210567
#	235737
#	255140
#
# Disc length: 3644
#
# Revision: 2
# Processed by: cddbd v1.5.1PL0 Copyright (c) Steve Scherf et al.
# Submitted via: CDex 1.30
# Normalized: r1:DSETVAR2,TDELIM( - )
#
DISCID=8b0e3a0c
DTITLE=Various Artist - after hours BLUES
DYEAR=1999
DGENRE=Blues
TTITLE0=DJ Play My Blues - Buddy Guy
TTITLE1=How Long To Finish - Jimmy McGriff
TTITLE2=You Gave Me The Blues, Baby - Pee Wee Crayton
TTITLE3=Blues After Hours - Pee Wee Crayton
TTITLE4=In Search of Truth - Jimmy Smith
TTITLE5=Love Ain't Nothing But A Business Going On - Junior Parker
TTITLE6=Slow Blues in G - Jeremy Steig
TTITLE7=Memphis To K.C. - Johny Lytle
TTITLE8=Hot A Saucy, Short and Grand - Guitar Shorty and Otis Grand
TTITLE9=Blue Groove Pt. 1 - Jimmy McGriff
TTITLE10=Don't Throw Your Love On Me So Strong - Junior Parker
TTITLE11=Blues Bag - Jimmy Ponder
EXTD=\nYEAR: 1999  ID3G:   0
EXTT0=
EXTT1=
EXTT2=
EXTT3=
EXTT4=
EXTT5=
EXTT6=
EXTT7=
EXTT8=
EXTT9=
EXTT10=
EXTT11=
PLAYORDER=
